{
	"asset":{
		"generator":"Khronos glTF Blender I/O v4.3.47",
		"version":"2.0"
	},
	"extensionsUsed":[
		"KHR_materials_specular",
		"KHR_texture_transform"
	],
	"extensionsRequired":[
		"KHR_texture_transform"
	],
	"scene":0,
	"scenes":[
		{
			"name":"Scene",
			"nodes":[
				0,
				1,
				4
			]
		}
	],
	"nodes":[
		{
			"mesh":0,
			"name":"Blossom",
			"rotation":[
				0.70710688829422,
				0,
				0,
				0.7071066498756409
			],
			"scale":[
				1.2200000286102295,
				1.2200000286102295,
				1.2200000286102295
			]
		},
		{
			"mesh":1,
			"name":"Stem",
			"rotation":[
				0.70710688829422,
				0,
				0,
				0.7071066498756409
			],
			"scale":[
				1.2200000286102295,
				1.2200000286102295,
				1.2200000286102295
			]
		},
		{
			"mesh":2,
			"name":"leaves1",
			"rotation":[
				-0.316730797290802,
				-0.04468342661857605,
				-0.01754414476454258,
				0.9472999572753906
			],
			"scale":[
				0.9999850392341614,
				0.5586891770362854,
				0.8583930730819702
			],
			"translation":[
				0.5649241805076599,
				0.3111891448497772,
				-0.2592267096042633
			]
		},
		{
			"mesh":3,
			"name":"leaves2",
			"rotation":[
				0.12397562712430954,
				0.007755155209451914,
				0.011269737966358662,
				0.992190957069397
			],
			"translation":[
				0.6133347153663635,
				0.7524855732917786,
				0.025036171078681946
			]
		},
		{
			"children":[
				2,
				3
			],
			"mesh":4,
			"name":"GrafTree2LOW",
			"rotation":[
				0.045541830360889435,
				0.1930946707725525,
				-0.004889598116278648,
				0.9801104664802551
			],
			"scale":[
				0.5146684646606445,
				0.5146684646606445,
				0.5146685242652893
			],
			"translation":[
				0.14529943466186523,
				0.25656747817993164,
				-40.69483947753906
			]
		}
	],
	"materials":[
		{
			"name":"Blossom",
			"pbrMetallicRoughness":{
				"metallicFactor":0
			}
		},
		{
			"name":"Stem",
			"pbrMetallicRoughness":{
				"baseColorFactor":[
					0.09989863634109497,
					0.5457248091697693,
					0.4677838981151581,
					1
				],
				"metallicFactor":0
			}
		},
		{
			"alphaMode":"BLEND",
			"doubleSided":true,
			"extensions":{
				"KHR_materials_specular":{
					"specularFactor":0
				}
			},
			"name":"NeedlesLOW.012",
			"pbrMetallicRoughness":{
				"baseColorFactor":[
					0.800000011920929,
					0.800000011920929,
					0.800000011920929,
					1
				],
				"baseColorTexture":{
					"extensions":{
						"KHR_texture_transform":{
							"offset":[
								0,
								0.038461506366729736
							],
							"scale":[
								0.9615384936332703,
								0.9615384936332703
							]
						}
					},
					"index":0
				},
				"metallicFactor":0
			}
		},
		{
			"doubleSided":true,
			"extensions":{
				"KHR_materials_specular":{
					"specularFactor":0
				}
			},
			"name":"GrafTree2LOW.010",
			"pbrMetallicRoughness":{
				"baseColorTexture":{
					"index":1
				},
				"metallicFactor":0
			}
		}
	],
	"meshes":[
		{
			"name":"Blossom",
			"primitives":[
				{
					"attributes":{
						"POSITION":0,
						"NORMAL":1
					},
					"indices":2,
					"material":0
				}
			]
		},
		{
			"name":"Stem",
			"primitives":[
				{
					"attributes":{
						"POSITION":3,
						"NORMAL":4
					},
					"indices":5,
					"material":1
				}
			]
		},
		{
			"name":"leaves.030",
			"primitives":[
				{
					"attributes":{
						"POSITION":6,
						"NORMAL":7,
						"TEXCOORD_0":8
					},
					"indices":9,
					"material":2
				}
			]
		},
		{
			"name":"leaves.031",
			"primitives":[
				{
					"attributes":{
						"POSITION":10,
						"NORMAL":11,
						"TEXCOORD_0":12
					},
					"indices":13,
					"material":2
				}
			]
		},
		{
			"name":"mesh.022",
			"primitives":[
				{
					"attributes":{
						"POSITION":14,
						"NORMAL":15,
						"TEXCOORD_0":16
					},
					"indices":17,
					"material":3
				}
			]
		}
	],
	"textures":[
		{
			"sampler":0,
			"source":0
		},
		{
			"sampler":0,
			"source":1
		}
	],
	"images":[
		{
			"mimeType":"image/png",
			"name":"NeedlesLOW",
			"uri":"NeedlesLOW.png"
		},
		{
			"mimeType":"image/png",
			"name":"Retopo_graftree2old_Bake1_PBR StoA_Diffuse",
			"uri":"Retopo_graftree2old_Bake1_PBR%20StoA_Diffuse.png"
		}
	],
	"accessors":[
		{
			"bufferView":0,
			"componentType":5126,
			"count":98,
			"max":[
				0.06201309710741043,
				0.05370491370558739,
				-0.1438799947500229
			],
			"min":[
				-0.06201309710741043,
				-0.05370491370558739,
				-0.16654229164123535
			],
			"type":"VEC3"
		},
		{
			"bufferView":1,
			"componentType":5126,
			"count":98,
			"type":"VEC3"
		},
		{
			"bufferView":2,
			"componentType":5123,
			"count":114,
			"type":"SCALAR"
		},
		{
			"bufferView":3,
			"componentType":5126,
			"count":120,
			"max":[
				0.05056530982255936,
				0.05056530982255936,
				0
			],
			"min":[
				-0.05056530982255936,
				-0.05056530982255936,
				-0.1438799947500229
			],
			"type":"VEC3"
		},
		{
			"bufferView":4,
			"componentType":5126,
			"count":120,
			"type":"VEC3"
		},
		{
			"bufferView":5,
			"componentType":5123,
			"count":126,
			"type":"SCALAR"
		},
		{
			"bufferView":6,
			"componentType":5126,
			"count":13316,
			"max":[
				2.8719329833984375,
				6.219620227813721,
				3.459742307662964
			],
			"min":[
				-3.3437440395355225,
				-0.05873584747314453,
				-3.106574058532715
			],
			"type":"VEC3"
		},
		{
			"bufferView":7,
			"componentType":5126,
			"count":13316,
			"type":"VEC3"
		},
		{
			"bufferView":8,
			"componentType":5126,
			"count":13316,
			"type":"VEC2"
		},
		{
			"bufferView":9,
			"componentType":5123,
			"count":19506,
			"type":"SCALAR"
		},
		{
			"bufferView":10,
			"componentType":5126,
			"count":6022,
			"max":[
				1.4885828495025635,
				3.562908172607422,
				1.6085476875305176
			],
			"min":[
				-1.5029466152191162,
				-0.2924014627933502,
				-1.5086829662322998
			],
			"type":"VEC3"
		},
		{
			"bufferView":11,
			"componentType":5126,
			"count":6022,
			"type":"VEC3"
		},
		{
			"bufferView":12,
			"componentType":5126,
			"count":6022,
			"type":"VEC2"
		},
		{
			"bufferView":13,
			"componentType":5123,
			"count":8958,
			"type":"SCALAR"
		},
		{
			"bufferView":14,
			"componentType":5126,
			"count":8913,
			"max":[
				3.2362444400787354,
				3.9412903785705566,
				1.6348440647125244
			],
			"min":[
				-2.177863836288452,
				-0.7120403051376343,
				-3.366563081741333
			],
			"type":"VEC3"
		},
		{
			"bufferView":15,
			"componentType":5126,
			"count":8913,
			"type":"VEC3"
		},
		{
			"bufferView":16,
			"componentType":5126,
			"count":8913,
			"type":"VEC2"
		},
		{
			"bufferView":17,
			"componentType":5123,
			"count":12774,
			"type":"SCALAR"
		}
	],
	"bufferViews":[
		{
			"buffer":0,
			"byteLength":1176,
			"byteOffset":0,
			"target":34962
		},
		{
			"buffer":0,
			"byteLength":1176,
			"byteOffset":1176,
			"target":34962
		},
		{
			"buffer":0,
			"byteLength":228,
			"byteOffset":2352,
			"target":34963
		},
		{
			"buffer":0,
			"byteLength":1440,
			"byteOffset":2580,
			"target":34962
		},
		{
			"buffer":0,
			"byteLength":1440,
			"byteOffset":4020,
			"target":34962
		},
		{
			"buffer":0,
			"byteLength":252,
			"byteOffset":5460,
			"target":34963
		},
		{
			"buffer":0,
			"byteLength":159792,
			"byteOffset":5712,
			"target":34962
		},
		{
			"buffer":0,
			"byteLength":159792,
			"byteOffset":165504,
			"target":34962
		},
		{
			"buffer":0,
			"byteLength":106528,
			"byteOffset":325296,
			"target":34962
		},
		{
			"buffer":0,
			"byteLength":39012,
			"byteOffset":431824,
			"target":34963
		},
		{
			"buffer":0,
			"byteLength":72264,
			"byteOffset":470836,
			"target":34962
		},
		{
			"buffer":0,
			"byteLength":72264,
			"byteOffset":543100,
			"target":34962
		},
		{
			"buffer":0,
			"byteLength":48176,
			"byteOffset":615364,
			"target":34962
		},
		{
			"buffer":0,
			"byteLength":17916,
			"byteOffset":663540,
			"target":34963
		},
		{
			"buffer":0,
			"byteLength":106956,
			"byteOffset":681456,
			"target":34962
		},
		{
			"buffer":0,
			"byteLength":106956,
			"byteOffset":788412,
			"target":34962
		},
		{
			"buffer":0,
			"byteLength":71304,
			"byteOffset":895368,
			"target":34962
		},
		{
			"buffer":0,
			"byteLength":25548,
			"byteOffset":966672,
			"target":34963
		}
	],
	"samplers":[
		{
			"magFilter":9729,
			"minFilter":9987
		}
	],
	"buffers":[
		{
			"byteLength":992220,
			"uri":"Arbol_1.bin"
		}
	]
}
