{
	"asset":{
		"generator":"Khronos glTF Blender I/O v4.3.47",
		"version":"2.0"
	},
	"extensionsUsed":[
		"KHR_materials_specular",
		"KHR_texture_transform"
	],
	"extensionsRequired":[
		"KHR_texture_transform"
	],
	"scene":0,
	"scenes":[
		{
			"name":"Scene",
			"nodes":[
				0,
				1,
				3
			]
		}
	],
	"nodes":[
		{
			"mesh":0,
			"name":"Blossom",
			"rotation":[
				0.70710688829422,
				0,
				0,
				0.7071066498756409
			],
			"scale":[
				1.2200000286102295,
				1.2200000286102295,
				1.2200000286102295
			]
		},
		{
			"mesh":1,
			"name":"Stem",
			"rotation":[
				0.70710688829422,
				0,
				0,
				0.7071066498756409
			],
			"scale":[
				1.2200000286102295,
				1.2200000286102295,
				1.2200000286102295
			]
		},
		{
			"mesh":2,
			"name":"leaves",
			"translation":[
				0,
				0,
				-7.615424692630768e-06
			]
		},
		{
			"children":[
				2
			],
			"mesh":3,
			"name":"CrazyRootsLOW",
			"rotation":[
				-0.16932862997055054,
				0.1361851990222931,
				0.09110131114721298,
				0.9718446135520935
			],
			"scale":[
				0.4419831335544586,
				0.4419831335544586,
				0.4419832229614258
			],
			"translation":[
				0.00512656569480896,
				0.0165887251496315,
				0.1390688568353653
			]
		}
	],
	"materials":[
		{
			"name":"Blossom",
			"pbrMetallicRoughness":{
				"metallicFactor":0
			}
		},
		{
			"name":"Stem",
			"pbrMetallicRoughness":{
				"baseColorFactor":[
					0.09989863634109497,
					0.5457248091697693,
					0.4677838981151581,
					1
				],
				"metallicFactor":0
			}
		},
		{
			"alphaMode":"BLEND",
			"doubleSided":true,
			"extensions":{
				"KHR_materials_specular":{
					"specularFactor":0
				}
			},
			"name":"NeedlesLOW.011",
			"pbrMetallicRoughness":{
				"baseColorFactor":[
					0.800000011920929,
					0.800000011920929,
					0.800000011920929,
					1
				],
				"baseColorTexture":{
					"extensions":{
						"KHR_texture_transform":{
							"offset":[
								0,
								0.03846150319251662
							],
							"scale":[
								0.9615384968074834,
								0.9615384968074834
							]
						}
					},
					"index":0
				},
				"metallicFactor":0
			}
		},
		{
			"doubleSided":true,
			"extensions":{
				"KHR_materials_specular":{
					"specularFactor":0
				}
			},
			"name":"CrazyRootsLOW.008",
			"pbrMetallicRoughness":{
				"baseColorTexture":{
					"index":1
				},
				"metallicFactor":0
			}
		}
	],
	"meshes":[
		{
			"name":"Blossom",
			"primitives":[
				{
					"attributes":{
						"POSITION":0,
						"NORMAL":1
					},
					"indices":2,
					"material":0
				}
			]
		},
		{
			"name":"Stem",
			"primitives":[
				{
					"attributes":{
						"POSITION":3,
						"NORMAL":4
					},
					"indices":5,
					"material":1
				}
			]
		},
		{
			"name":"leaves.029",
			"primitives":[
				{
					"attributes":{
						"POSITION":6,
						"NORMAL":7,
						"TEXCOORD_0":8
					},
					"indices":9,
					"material":2
				}
			]
		},
		{
			"name":"mesh.018",
			"primitives":[
				{
					"attributes":{
						"POSITION":10,
						"NORMAL":11,
						"TEXCOORD_0":12
					},
					"indices":13,
					"material":3
				}
			]
		}
	],
	"textures":[
		{
			"sampler":0,
			"source":0
		},
		{
			"sampler":0,
			"source":1
		}
	],
	"images":[
		{
			"mimeType":"image/png",
			"name":"NeedlesLOW",
			"uri":"NeedlesLOW.png"
		},
		{
			"mimeType":"image/png",
			"name":"CrazyRootsLOW_Bake1_PBR StoA_Diffuse",
			"uri":"CrazyRootsLOW_Bake1_PBR%20StoA_Diffuse.png"
		}
	],
	"accessors":[
		{
			"bufferView":0,
			"componentType":5126,
			"count":98,
			"max":[
				0.06201309710741043,
				0.05370491370558739,
				-0.1438799947500229
			],
			"min":[
				-0.06201309710741043,
				-0.05370491370558739,
				-0.16654229164123535
			],
			"type":"VEC3"
		},
		{
			"bufferView":1,
			"componentType":5126,
			"count":98,
			"type":"VEC3"
		},
		{
			"bufferView":2,
			"componentType":5123,
			"count":114,
			"type":"SCALAR"
		},
		{
			"bufferView":3,
			"componentType":5126,
			"count":120,
			"max":[
				0.05056530982255936,
				0.05056530982255936,
				0
			],
			"min":[
				-0.05056530982255936,
				-0.05056530982255936,
				-0.1438799947500229
			],
			"type":"VEC3"
		},
		{
			"bufferView":4,
			"componentType":5126,
			"count":120,
			"type":"VEC3"
		},
		{
			"bufferView":5,
			"componentType":5123,
			"count":126,
			"type":"SCALAR"
		},
		{
			"bufferView":6,
			"componentType":5126,
			"count":13488,
			"max":[
				2.844806432723999,
				6.492533206939697,
				2.4763736724853516
			],
			"min":[
				-2.840585708618164,
				0.807664692401886,
				-2.838336706161499
			],
			"type":"VEC3"
		},
		{
			"bufferView":7,
			"componentType":5126,
			"count":13488,
			"type":"VEC3"
		},
		{
			"bufferView":8,
			"componentType":5126,
			"count":13488,
			"type":"VEC2"
		},
		{
			"bufferView":9,
			"componentType":5123,
			"count":20232,
			"type":"SCALAR"
		},
		{
			"bufferView":10,
			"componentType":5126,
			"count":6532,
			"max":[
				2.525404930114746,
				6.024752616882324,
				2.247202157974243
			],
			"min":[
				-2.544597625732422,
				-0.47607097029685974,
				-2.5113093852996826
			],
			"type":"VEC3"
		},
		{
			"bufferView":11,
			"componentType":5126,
			"count":6532,
			"type":"VEC3"
		},
		{
			"bufferView":12,
			"componentType":5126,
			"count":6532,
			"type":"VEC2"
		},
		{
			"bufferView":13,
			"componentType":5123,
			"count":13689,
			"type":"SCALAR"
		}
	],
	"bufferViews":[
		{
			"buffer":0,
			"byteLength":1176,
			"byteOffset":0,
			"target":34962
		},
		{
			"buffer":0,
			"byteLength":1176,
			"byteOffset":1176,
			"target":34962
		},
		{
			"buffer":0,
			"byteLength":228,
			"byteOffset":2352,
			"target":34963
		},
		{
			"buffer":0,
			"byteLength":1440,
			"byteOffset":2580,
			"target":34962
		},
		{
			"buffer":0,
			"byteLength":1440,
			"byteOffset":4020,
			"target":34962
		},
		{
			"buffer":0,
			"byteLength":252,
			"byteOffset":5460,
			"target":34963
		},
		{
			"buffer":0,
			"byteLength":161856,
			"byteOffset":5712,
			"target":34962
		},
		{
			"buffer":0,
			"byteLength":161856,
			"byteOffset":167568,
			"target":34962
		},
		{
			"buffer":0,
			"byteLength":107904,
			"byteOffset":329424,
			"target":34962
		},
		{
			"buffer":0,
			"byteLength":40464,
			"byteOffset":437328,
			"target":34963
		},
		{
			"buffer":0,
			"byteLength":78384,
			"byteOffset":477792,
			"target":34962
		},
		{
			"buffer":0,
			"byteLength":78384,
			"byteOffset":556176,
			"target":34962
		},
		{
			"buffer":0,
			"byteLength":52256,
			"byteOffset":634560,
			"target":34962
		},
		{
			"buffer":0,
			"byteLength":27378,
			"byteOffset":686816,
			"target":34963
		}
	],
	"samplers":[
		{
			"magFilter":9729,
			"minFilter":9987
		}
	],
	"buffers":[
		{
			"byteLength":714196,
			"uri":"Arbol_2.bin"
		}
	]
}
